# xmcd
#
# Track frame offsets: 
#        150
#        17287
#        35827
#        54165
#        75515
#        90157
#        105840
#        122695
#        141432
#        161587
#        176865
#
# Disc length: 2575 seconds
#
# Revision: 5
# Processed by: cddbd v1.5.2PL0 Copyright (c) Steve Scherf et al.
# Submitted via: ExactAudioCopy v0.95a4
#
DISCID=7a0a0d0b
DTITLE=Warren Brothers - King Of Nothing
DYEAR=2000
DGENRE=Country
TTITLE0=Strange
TTITLE1=Waiting For The Light To Change
TTITLE2=Where Does It Hurt
TTITLE3=Superstar
TTITLE4=Move On
TTITLE5=No Place To Go
TTITLE6=Do-Ya
TTITLE7=What We Can't Have
TTITLE8=King Of Nothing
TTITLE9=It Ain't Me
TTITLE10=That's The Beat Of A Heart (feat. Sara Evans)
EXTD=YEAR: 2000
EXTT0=
EXTT1=
EXTT2=
EXTT3=
EXTT4=
EXTT5=
EXTT6=
EXTT7=
EXTT8=
EXTT9=
EXTT10=
PLAYORDER=
